<svg width="339" height="88" viewBox="0 0 339 88" fill="none" xmlns="http://www.w3.org/2000/svg">
<path d="M1.58649 56.8333V47.0556H19.9843L47.2743 0L74.5644 47.0556L86.8296 68.4444L99.0948 47.0556H112.586V56.8333H104.921L86.8296 88L47.2743 19.5556L25.8102 56.8333H1.58649Z" fill="url(#paint0_linear_68_2171)"/>
<path d="M47.2743 39.1111L37.1555 56.8333H57.4955L47.2743 39.1111Z" fill="url(#paint1_linear_68_2171)"/>
<path d="M132.522 67L152.81 22.2H159.146L179.498 67H172.778L154.666 25.784H157.226L139.114 67H132.522ZM141.162 55.8L142.89 50.68H168.106L169.962 55.8H141.162Z" fill="url(#paint2_linear_68_2171)"/>
<path d="M203.269 67.384C200.453 67.384 197.872 66.744 195.525 65.464C193.221 64.1413 191.365 62.2 189.957 59.64C188.592 57.08 187.909 53.88 187.909 50.04C187.909 46.2 188.571 43 189.893 40.44C191.259 37.88 193.093 35.96 195.397 34.68C197.744 33.4 200.368 32.76 203.269 32.76C206.597 32.76 209.541 33.4853 212.101 34.936C214.661 36.3867 216.688 38.4133 218.181 41.016C219.675 43.576 220.421 46.584 220.421 50.04C220.421 53.496 219.675 56.5253 218.181 59.128C216.688 61.7307 214.661 63.7573 212.101 65.208C209.541 66.6587 206.597 67.384 203.269 67.384ZM185.285 79.416V33.08H191.173V42.232L190.789 50.104L191.429 57.976V79.416H185.285ZM202.757 62.008C204.933 62.008 206.875 61.5173 208.581 60.536C210.331 59.5547 211.696 58.168 212.677 56.376C213.701 54.5413 214.213 52.4293 214.213 50.04C214.213 47.608 213.701 45.5173 212.677 43.768C211.696 41.976 210.331 40.5893 208.581 39.608C206.875 38.6267 204.933 38.136 202.757 38.136C200.624 38.136 198.683 38.6267 196.933 39.608C195.227 40.5893 193.861 41.976 192.837 43.768C191.856 45.5173 191.365 47.608 191.365 50.04C191.365 52.4293 191.856 54.5413 192.837 56.376C193.861 58.168 195.227 59.5547 196.933 60.536C198.683 61.5173 200.624 62.008 202.757 62.008Z" fill="url(#paint3_linear_68_2171)"/>
<path d="M243.438 67.384C240.025 67.384 236.996 66.6373 234.35 65.144C231.705 63.6507 229.614 61.6027 228.078 59C226.542 56.3547 225.774 53.368 225.774 50.04C225.774 46.6693 226.542 43.6827 228.078 41.08C229.614 38.4773 231.705 36.4507 234.35 35C236.996 33.5067 240.025 32.76 243.438 32.76C246.809 32.76 249.817 33.5067 252.462 35C255.15 36.4507 257.241 38.4773 258.734 41.08C260.27 43.64 261.038 46.6267 261.038 50.04C261.038 53.4107 260.27 56.3973 258.734 59C257.241 61.6027 255.15 63.6507 252.462 65.144C249.817 66.6373 246.809 67.384 243.438 67.384ZM243.438 62.008C245.614 62.008 247.556 61.5173 249.262 60.536C251.012 59.5547 252.377 58.168 253.358 56.376C254.34 54.5413 254.83 52.4293 254.83 50.04C254.83 47.608 254.34 45.5173 253.358 43.768C252.377 41.976 251.012 40.5893 249.262 39.608C247.556 38.6267 245.614 38.136 243.438 38.136C241.262 38.136 239.321 38.6267 237.614 39.608C235.908 40.5893 234.542 41.976 233.518 43.768C232.494 45.5173 231.982 47.608 231.982 50.04C231.982 52.4293 232.494 54.5413 233.518 56.376C234.542 58.168 235.908 59.5547 237.614 60.536C239.321 61.5173 241.262 62.008 243.438 62.008Z" fill="url(#paint4_linear_68_2171)"/>
<path d="M269.535 67V19.512H275.679V67H269.535Z" fill="url(#paint5_linear_68_2171)"/>
<path d="M287.41 67V19.512H293.554V67H287.41Z" fill="url(#paint6_linear_68_2171)"/>
<path d="M319.813 67.384C316.4 67.384 313.371 66.6373 310.725 65.144C308.08 63.6507 305.989 61.6027 304.453 59C302.917 56.3547 302.149 53.368 302.149 50.04C302.149 46.6693 302.917 43.6827 304.453 41.08C305.989 38.4773 308.08 36.4507 310.725 35C313.371 33.5067 316.4 32.76 319.813 32.76C323.184 32.76 326.192 33.5067 328.837 35C331.525 36.4507 333.616 38.4773 335.109 41.08C336.645 43.64 337.413 46.6267 337.413 50.04C337.413 53.4107 336.645 56.3973 335.109 59C333.616 61.6027 331.525 63.6507 328.837 65.144C326.192 66.6373 323.184 67.384 319.813 67.384ZM319.813 62.008C321.989 62.008 323.931 61.5173 325.637 60.536C327.387 59.5547 328.752 58.168 329.733 56.376C330.715 54.5413 331.205 52.4293 331.205 50.04C331.205 47.608 330.715 45.5173 329.733 43.768C328.752 41.976 327.387 40.5893 325.637 39.608C323.931 38.6267 321.989 38.136 319.813 38.136C317.637 38.136 315.696 38.6267 313.99 39.608C312.283 40.5893 310.917 41.976 309.893 43.768C308.869 45.5173 308.357 47.608 308.357 50.04C308.357 52.4293 308.869 54.5413 309.893 56.376C310.917 58.168 312.283 59.5547 313.99 60.536C315.696 61.5173 317.637 62.008 319.813 62.008Z" fill="url(#paint7_linear_68_2171)"/>
<defs>
<linearGradient id="paint0_linear_68_2171" x1="1.58649" y1="44" x2="337.413" y2="44" gradientUnits="userSpaceOnUse">
<stop stop-color="#CCBAF7"/>
<stop offset="0.33" stop-color="#B8C0F8"/>
<stop offset="0.685" stop-color="#A3C8FA"/>
<stop offset="1" stop-color="#8DD0FC"/>
</linearGradient>
<linearGradient id="paint1_linear_68_2171" x1="1.58649" y1="44" x2="337.413" y2="44" gradientUnits="userSpaceOnUse">
<stop stop-color="#CCBAF7"/>
<stop offset="0.33" stop-color="#B8C0F8"/>
<stop offset="0.685" stop-color="#A3C8FA"/>
<stop offset="1" stop-color="#8DD0FC"/>
</linearGradient>
<linearGradient id="paint2_linear_68_2171" x1="1.58649" y1="44" x2="337.413" y2="44" gradientUnits="userSpaceOnUse">
<stop stop-color="#CCBAF7"/>
<stop offset="0.33" stop-color="#B8C0F8"/>
<stop offset="0.685" stop-color="#A3C8FA"/>
<stop offset="1" stop-color="#8DD0FC"/>
</linearGradient>
<linearGradient id="paint3_linear_68_2171" x1="1.58649" y1="44" x2="337.413" y2="44" gradientUnits="userSpaceOnUse">
<stop stop-color="#CCBAF7"/>
<stop offset="0.33" stop-color="#B8C0F8"/>
<stop offset="0.685" stop-color="#A3C8FA"/>
<stop offset="1" stop-color="#8DD0FC"/>
</linearGradient>
<linearGradient id="paint4_linear_68_2171" x1="1.58649" y1="44" x2="337.413" y2="44" gradientUnits="userSpaceOnUse">
<stop stop-color="#CCBAF7"/>
<stop offset="0.33" stop-color="#B8C0F8"/>
<stop offset="0.685" stop-color="#A3C8FA"/>
<stop offset="1" stop-color="#8DD0FC"/>
</linearGradient>
<linearGradient id="paint5_linear_68_2171" x1="1.58649" y1="44" x2="337.413" y2="44" gradientUnits="userSpaceOnUse">
<stop stop-color="#CCBAF7"/>
<stop offset="0.33" stop-color="#B8C0F8"/>
<stop offset="0.685" stop-color="#A3C8FA"/>
<stop offset="1" stop-color="#8DD0FC"/>
</linearGradient>
<linearGradient id="paint6_linear_68_2171" x1="1.58649" y1="44" x2="337.413" y2="44" gradientUnits="userSpaceOnUse">
<stop stop-color="#CCBAF7"/>
<stop offset="0.33" stop-color="#B8C0F8"/>
<stop offset="0.685" stop-color="#A3C8FA"/>
<stop offset="1" stop-color="#8DD0FC"/>
</linearGradient>
<linearGradient id="paint7_linear_68_2171" x1="1.58649" y1="44" x2="337.413" y2="44" gradientUnits="userSpaceOnUse">
<stop stop-color="#CCBAF7"/>
<stop offset="0.33" stop-color="#B8C0F8"/>
<stop offset="0.685" stop-color="#A3C8FA"/>
<stop offset="1" stop-color="#8DD0FC"/>
</linearGradient>
</defs>
</svg>
