<svg width="336" height="88" viewBox="0 0 336 88" fill="none" xmlns="http://www.w3.org/2000/svg">
<path d="M0 56.8333V47.0556H18.3978L45.6878 0L72.9779 47.0556L85.2431 68.4444L97.5083 47.0556H111V56.8333H103.334L85.2431 88L45.6878 19.5556L24.2238 56.8333H0Z" fill="#333333"/>
<path d="M45.6878 39.1111L35.5691 56.8333H55.9091L45.6878 39.1111Z" fill="#333333"/>
<path d="M130.936 67L151.224 22.2H157.56L177.912 67H171.192L153.08 25.784H155.64L137.528 67H130.936ZM139.576 55.8L141.304 50.68H166.52L168.376 55.8H139.576Z" fill="#333333"/>
<path d="M201.683 67.384C198.867 67.384 196.286 66.744 193.939 65.464C191.635 64.1413 189.779 62.2 188.371 59.64C187.006 57.08 186.323 53.88 186.323 50.04C186.323 46.2 186.984 43 188.307 40.44C189.672 37.88 191.507 35.96 193.811 34.68C196.158 33.4 198.782 32.76 201.683 32.76C205.011 32.76 207.955 33.4853 210.515 34.936C213.075 36.3867 215.102 38.4133 216.595 41.016C218.088 43.576 218.835 46.584 218.835 50.04C218.835 53.496 218.088 56.5253 216.595 59.128C215.102 61.7307 213.075 63.7573 210.515 65.208C207.955 66.6587 205.011 67.384 201.683 67.384ZM183.699 79.416V33.08H189.587V42.232L189.203 50.104L189.843 57.976V79.416H183.699ZM201.171 62.008C203.347 62.008 205.288 61.5173 206.995 60.536C208.744 59.5547 210.11 58.168 211.091 56.376C212.115 54.5413 212.627 52.4293 212.627 50.04C212.627 47.608 212.115 45.5173 211.091 43.768C210.11 41.976 208.744 40.5893 206.995 39.608C205.288 38.6267 203.347 38.136 201.171 38.136C199.038 38.136 197.096 38.6267 195.347 39.608C193.64 40.5893 192.275 41.976 191.251 43.768C190.27 45.5173 189.779 47.608 189.779 50.04C189.779 52.4293 190.27 54.5413 191.251 56.376C192.275 58.168 193.64 59.5547 195.347 60.536C197.096 61.5173 199.038 62.008 201.171 62.008Z" fill="#333333"/>
<path d="M241.852 67.384C238.439 67.384 235.409 66.6373 232.764 65.144C230.119 63.6507 228.028 61.6027 226.492 59C224.956 56.3547 224.188 53.368 224.188 50.04C224.188 46.6693 224.956 43.6827 226.492 41.08C228.028 38.4773 230.119 36.4507 232.764 35C235.409 33.5067 238.439 32.76 241.852 32.76C245.223 32.76 248.231 33.5067 250.876 35C253.564 36.4507 255.655 38.4773 257.148 41.08C258.684 43.64 259.452 46.6267 259.452 50.04C259.452 53.4107 258.684 56.3973 257.148 59C255.655 61.6027 253.564 63.6507 250.876 65.144C248.231 66.6373 245.223 67.384 241.852 67.384ZM241.852 62.008C244.028 62.008 245.969 61.5173 247.676 60.536C249.425 59.5547 250.791 58.168 251.772 56.376C252.753 54.5413 253.244 52.4293 253.244 50.04C253.244 47.608 252.753 45.5173 251.772 43.768C250.791 41.976 249.425 40.5893 247.676 39.608C245.969 38.6267 244.028 38.136 241.852 38.136C239.676 38.136 237.735 38.6267 236.028 39.608C234.321 40.5893 232.956 41.976 231.932 43.768C230.908 45.5173 230.396 47.608 230.396 50.04C230.396 52.4293 230.908 54.5413 231.932 56.376C232.956 58.168 234.321 59.5547 236.028 60.536C237.735 61.5173 239.676 62.008 241.852 62.008Z" fill="#333333"/>
<path d="M267.949 67V19.512H274.093V67H267.949Z" fill="#333333"/>
<path d="M285.824 67V19.512H291.968V67H285.824Z" fill="#333333"/>
<path d="M318.227 67.384C314.814 67.384 311.784 66.6373 309.139 65.144C306.494 63.6507 304.403 61.6027 302.867 59C301.331 56.3547 300.563 53.368 300.563 50.04C300.563 46.6693 301.331 43.6827 302.867 41.08C304.403 38.4773 306.494 36.4507 309.139 35C311.784 33.5067 314.814 32.76 318.227 32.76C321.598 32.76 324.606 33.5067 327.251 35C329.939 36.4507 332.03 38.4773 333.523 41.08C335.059 43.64 335.827 46.6267 335.827 50.04C335.827 53.4107 335.059 56.3973 333.523 59C332.03 61.6027 329.939 63.6507 327.251 65.144C324.606 66.6373 321.598 67.384 318.227 67.384ZM318.227 62.008C320.403 62.008 322.344 61.5173 324.051 60.536C325.8 59.5547 327.166 58.168 328.147 56.376C329.128 54.5413 329.619 52.4293 329.619 50.04C329.619 47.608 329.128 45.5173 328.147 43.768C327.166 41.976 325.8 40.5893 324.051 39.608C322.344 38.6267 320.403 38.136 318.227 38.136C316.051 38.136 314.11 38.6267 312.403 39.608C310.696 40.5893 309.331 41.976 308.307 43.768C307.283 45.5173 306.771 47.608 306.771 50.04C306.771 52.4293 307.283 54.5413 308.307 56.376C309.331 58.168 310.696 59.5547 312.403 60.536C314.11 61.5173 316.051 62.008 318.227 62.008Z" fill="#333333"/>
</svg>
