<svg width="24" height="24" viewBox="0 0 24 24" fill="none" xmlns="http://www.w3.org/2000/svg">
<path fill-rule="evenodd" clip-rule="evenodd" d="M10.5132 5.36261C8.69377 3.54319 5.74391 3.54319 3.9245 5.36261C2.10508 7.18202 2.10508 10.1319 3.9245 11.9513L4.7042 12.731C4.71695 12.7437 4.72931 12.7568 4.74129 12.7701L12 20.0289L19.2584 12.7705C19.2704 12.7571 19.2829 12.7439 19.2958 12.731L20.0755 11.9513C21.8949 10.1319 21.8949 7.18202 20.0755 5.36261C18.2561 3.54319 15.3062 3.54319 13.4868 5.36261L12.7071 6.14232C12.3166 6.53284 11.6834 6.53284 11.2929 6.14232L10.5132 5.36261ZM20.7484 14.1068C20.7364 14.1202 20.7239 14.1333 20.711 14.1462L12.7081 22.1491C12.5205 22.3367 12.2661 22.4421 12.0008 22.442C12.0005 22.442 12.0011 22.442 12.0008 22.442C12.0005 22.442 11.9995 22.442 11.9992 22.442C11.7339 22.4421 11.4795 22.3367 11.2919 22.1491L3.28896 14.1462C3.27607 14.1333 3.26359 14.1202 3.25155 14.1068L2.51029 13.3655C-0.0901777 10.765 -0.0901815 6.54886 2.51028 3.9484C5.11075 1.34793 9.32693 1.34793 11.9274 3.9484L12 4.021L12.0726 3.9484C14.6731 1.34793 18.8892 1.34793 21.4897 3.9484C24.0902 6.54886 24.0902 10.765 21.4897 13.3655L20.7484 14.1068Z" fill="currentColor"/>
</svg>
