<svg width="25" height="25" viewBox="0 0 25 25" fill="none" xmlns="http://www.w3.org/2000/svg">
<path d="M14.5 3.5C14.5 2.94772 14.9477 2.5 15.5 2.5H19.5C20.2957 2.5 21.0587 2.81607 21.6213 3.37868C22.1839 3.94129 22.5 4.70435 22.5 5.5V19.5C22.5 20.2957 22.1839 21.0587 21.6213 21.6213C21.0587 22.1839 20.2957 22.5 19.5 22.5H15.5C14.9477 22.5 14.5 22.0523 14.5 21.5C14.5 20.9477 14.9477 20.5 15.5 20.5H19.5C19.7652 20.5 20.0196 20.3946 20.2071 20.2071C20.3946 20.0196 20.5 19.7652 20.5 19.5V5.5C20.5 5.23478 20.3946 4.98043 20.2071 4.79289C20.0196 4.60536 19.7652 4.5 19.5 4.5H15.5C14.9477 4.5 14.5 4.05228 14.5 3.5Z" fill="currentColor"/>
<path d="M9.79289 6.79289C10.1834 6.40237 10.8166 6.40237 11.2071 6.79289L16.2071 11.7929C16.5976 12.1834 16.5976 12.8166 16.2071 13.2071L11.2071 18.2071C10.8166 18.5976 10.1834 18.5976 9.79289 18.2071C9.40237 17.8166 9.40237 17.1834 9.79289 16.7929L13.0858 13.5H3.5C2.94772 13.5 2.5 13.0523 2.5 12.5C2.5 11.9477 2.94772 11.5 3.5 11.5H13.0858L9.79289 8.20711C9.40237 7.81658 9.40237 7.18342 9.79289 6.79289Z" fill="currentColor"/>
</svg>
