<svg width="25" height="25" viewBox="0 0 25 25" fill="none" xmlns="http://www.w3.org/2000/svg">
<g id="icon-search">
<path id="Shape" fill-rule="evenodd" clip-rule="evenodd" d="M4.5 11C4.5 7.13401 7.63401 4 11.5 4C15.366 4 18.5 7.13401 18.5 11C18.5 12.8858 17.7543 14.5974 16.5417 15.8561C16.5073 15.8825 16.4743 15.9114 16.4428 15.9429C16.4113 15.9744 16.3824 16.0074 16.356 16.0418C15.0973 17.2543 13.3857 18 11.5 18C7.63401 18 4.5 14.866 4.5 11ZM17.1176 18.0319C15.578 19.2635 13.625 20 11.5 20C6.52944 20 2.5 15.9706 2.5 11C2.5 6.02944 6.52944 2 11.5 2C16.4706 2 20.5 6.02944 20.5 11C20.5 13.125 19.7635 15.0781 18.5319 16.6177L22.207 20.2929C22.5975 20.6834 22.5975 21.3166 22.207 21.7071C21.8165 22.0976 21.1833 22.0976 20.7928 21.7071L17.1176 18.0319Z" fill="currentColor"/>
</g>
</svg>
